<svg xmlns="http://www.w3.org/2000/svg" style="display: none;"><symbol id="placeholder" viewBox="0 0 512 512"><title>placeholder</title><g xmlns="http://www.w3.org/2000/svg"> <g> <path d="M256,0C156.748,0,76,80.748,76,180c0,33.534,9.289,66.26,26.869,94.652l142.885,230.257 c2.737,4.411,7.559,7.091,12.745,7.091c0.04,0,0.079,0,0.119,0c5.231-0.041,10.063-2.804,12.75-7.292L410.611,272.22 C427.221,244.428,436,212.539,436,180C436,80.748,355.252,0,256,0z M384.866,256.818L258.272,468.186l-129.905-209.34 C113.734,235.214,105.8,207.95,105.8,180c0-82.71,67.49-150.2,150.2-150.2S406.1,97.29,406.1,180 C406.1,207.121,398.689,233.688,384.866,256.818z" fill="#f4ec07" data-original="#000000" style=""/> </g> </g><g xmlns="http://www.w3.org/2000/svg"> <g> <path d="M256,90c-49.626,0-90,40.374-90,90c0,49.309,39.717,90,90,90c50.903,0,90-41.233,90-90C346,130.374,305.626,90,256,90z M256,240.2c-33.257,0-60.2-27.033-60.2-60.2c0-33.084,27.116-60.2,60.2-60.2s60.1,27.116,60.1,60.2 C316.1,212.683,289.784,240.2,256,240.2z" fill="#f4ec07" data-original="#000000" style=""/> </g> </g></symbol><symbol id="call" viewBox="0 0 512.076 512.076"><title>call</title><g xmlns="http://www.w3.org/2000/svg" transform="translate(-1 -1)"> <g> <g> <path d="M499.639,396.039l-103.646-69.12c-13.153-8.701-30.784-5.838-40.508,6.579l-30.191,38.818 c-3.88,5.116-10.933,6.6-16.546,3.482l-5.743-3.166c-19.038-10.377-42.726-23.296-90.453-71.04s-60.672-71.45-71.049-90.453 l-3.149-5.743c-3.161-5.612-1.705-12.695,3.413-16.606l38.792-30.182c12.412-9.725,15.279-27.351,6.588-40.508l-69.12-103.646 C109.12,1.056,91.25-2.966,77.461,5.323L34.12,31.358C20.502,39.364,10.511,52.33,6.242,67.539 c-15.607,56.866-3.866,155.008,140.706,299.597c115.004,114.995,200.619,145.92,259.465,145.92 c13.543,0.058,27.033-1.704,40.107-5.239c15.212-4.264,28.18-14.256,36.181-27.878l26.061-43.315 C517.063,422.832,513.043,404.951,499.639,396.039z M494.058,427.868l-26.001,43.341c-5.745,9.832-15.072,17.061-26.027,20.173 c-52.497,14.413-144.213,2.475-283.008-136.32S8.29,124.559,22.703,72.054c3.116-10.968,10.354-20.307,20.198-26.061 l43.341-26.001c5.983-3.6,13.739-1.855,17.604,3.959l37.547,56.371l31.514,47.266c3.774,5.707,2.534,13.356-2.85,17.579 l-38.801,30.182c-11.808,9.029-15.18,25.366-7.91,38.332l3.081,5.598c10.906,20.002,24.465,44.885,73.967,94.379 c49.502,49.493,74.377,63.053,94.37,73.958l5.606,3.089c12.965,7.269,29.303,3.898,38.332-7.91l30.182-38.801 c4.224-5.381,11.87-6.62,17.579-2.85l103.637,69.12C495.918,414.126,497.663,421.886,494.058,427.868z" fill="#f4ec07" data-original="#000000" style="" class=""/> <path d="M291.161,86.39c80.081,0.089,144.977,64.986,145.067,145.067c0,4.713,3.82,8.533,8.533,8.533s8.533-3.82,8.533-8.533 c-0.099-89.503-72.63-162.035-162.133-162.133c-4.713,0-8.533,3.82-8.533,8.533S286.448,86.39,291.161,86.39z" fill="#f4ec07" data-original="#000000" style="" class=""/> <path d="M291.161,137.59c51.816,0.061,93.806,42.051,93.867,93.867c0,4.713,3.821,8.533,8.533,8.533 c4.713,0,8.533-3.82,8.533-8.533c-0.071-61.238-49.696-110.863-110.933-110.933c-4.713,0-8.533,3.82-8.533,8.533 S286.448,137.59,291.161,137.59z" fill="#f4ec07" data-original="#000000" style="" class=""/> <path d="M291.161,188.79c23.552,0.028,42.638,19.114,42.667,42.667c0,4.713,3.821,8.533,8.533,8.533s8.533-3.82,8.533-8.533 c-0.038-32.974-26.759-59.696-59.733-59.733c-4.713,0-8.533,3.82-8.533,8.533S286.448,188.79,291.161,188.79z" fill="#f4ec07" data-original="#000000" style="" class=""/> </g> </g> </g></symbol><symbol id="open" viewBox="0 0 512.022 512.022"><title>open</title><path d="m510.96 487.829c.686-1.142 1.025-2.471 1.041-3.799v-278.113c.18-2.574-.802-5.207-2.882-6.797l-67.118-52.445v-68.645c0-4.142-3.357-7.5-7.5-7.5h-89.95l-45.712-35.717c-24.324-19.007-58.377-19.105-82.809-.242l-46.579 35.959h-91.95c-4.143 0-7.5 3.358-7.5 7.5v69.275l-67.062 51.773c-1.83 1.398-2.942 3.65-2.938 5.953v66c0 4.143 3.357 7.5 7.5 7.5s7.5-3.357 7.5-7.5v-53.22l188.602 105.354-188.602 145.601v-162.736c0-4.143-3.357-7.5-7.5-7.5s-7.5 3.357-7.5 7.5v178c-.066 4.026 3.471 7.57 7.5 7.5h497c2.608.008 5.16-1.435 6.459-3.701zm-19.195-283.232-49.764 28.036v-66.921zm-266.569-158.153c19.004-14.67 45.49-14.593 64.406.188l30.585 23.898h-126.191zm-53.191 39.086h.009.006 254.981v155.554l-47.376 26.691c-3.608 2.033-4.886 6.606-2.853 10.216 2.044 3.643 6.673 4.866 10.216 2.853l110.013-61.979v249.787l-73.729-57.61c-3.263-2.549-7.977-1.972-10.528 1.292-2.55 3.265-1.972 7.978 1.292 10.528l68.685 53.669h-453.232l195.708-151.086c19.006-14.672 45.49-14.593 64.406.188l3.612 2.822c.005.004.009.007.014.011l94.016 73.461c3.265 2.55 7.977 1.973 10.528-1.292 2.55-3.265 1.972-7.978-1.292-10.528l-85.229-66.595 46.113-25.979c3.608-2.033 4.886-6.606 2.853-10.216-2.032-3.608-6.604-4.884-10.216-2.853l-51.562 29.049c-24.132-18.57-57.646-18.695-81.91-.31l-131.529-73.471v-154.202zm-102.004 145.822-48.923-27.329 48.923-37.769z" fill="#f4ec07" data-original="#000000" style=""/><path d="m186.501 143.53h139c4.143 0 7.5-3.358 7.5-7.5s-3.357-7.5-7.5-7.5h-139c-4.143 0-7.5 3.358-7.5 7.5s3.357 7.5 7.5 7.5z" fill="#f4ec07" data-original="#000000" style=""/><path d="m141.501 245.53h229c4.143 0 7.5-3.358 7.5-7.5s-3.357-7.5-7.5-7.5h-229c-4.143 0-7.5 3.358-7.5 7.5s3.357 7.5 7.5 7.5z" fill="#f4ec07" data-original="#000000" style=""/><path d="m141.555 194.201h60.451c4.143 0 7.5-3.358 7.5-7.5s-3.357-7.5-7.5-7.5h-60.451c-4.143 0-7.5 3.358-7.5 7.5s3.357 7.5 7.5 7.5z" fill="#f4ec07" data-original="#000000" style=""/><path d="m234.415 186.701c0 4.142 3.357 7.5 7.5 7.5h128.532c4.143 0 7.5-3.358 7.5-7.5s-3.357-7.5-7.5-7.5h-128.532c-4.143 0-7.5 3.358-7.5 7.5z" fill="#f4ec07" data-original="#000000" style=""/></symbol></svg>